HIERARCHY
ROOT pelvis
{
  OFFSET 0 100 0
  CHANNELS 6 Xposition Yposition Zposition Zrotation Xrotation Yrotation
  JOINT pelvis_right_femur
  {
    OFFSET -10.78128 -3.44521 -0.5502486
    CHANNELS 3 Zrotation Xrotation Yrotation
    JOINT right_femur_tibia
    {
      OFFSET -0.8047443 -44.0398 -0.1307829
      CHANNELS 3 Zrotation Xrotation Yrotation
      JOINT right_tibia_foot
      {
        OFFSET 3.006224 -47.83518 -5
        CHANNELS 3 Zrotation Xrotation Yrotation
        End Site
        {
          OFFSET 0 -5 15
        }
      }
    }
  }
  JOINT pelvis_left_femur
  {
    OFFSET 10.78128 -3.44521 -0.5502486
    CHANNELS 3 Zrotation Xrotation Yrotation
    JOINT left_femur_tibia
    {
      OFFSET 0.8047443 -44.0398 -0.1307829
      CHANNELS 3 Zrotation Xrotation Yrotation
      JOINT left_tibia_foot
      {
        OFFSET -4.370144 -48.10324 -4.275266
        CHANNELS 3 Zrotation Xrotation Yrotation
        End Site
        {
          OFFSET 0 -5 15
        }
      }
    }
  }
  JOINT pelvis_spine1
  {
    OFFSET 0 6.468898 -3.129235
    CHANNELS 3 Zrotation Xrotation Yrotation
    JOINT spine1
    {
      OFFSET 0 23.15396 4.99043
      CHANNELS 3 Zrotation Xrotation Yrotation
      JOINT spine2
      {
        OFFSET 0 20.79997 -5.064912
        CHANNELS 3 Zrotation Xrotation Yrotation
        JOINT neck
        {
          OFFSET 0 14.38658 9.616178
          CHANNELS 3 Zrotation Xrotation Yrotation
          End Site
          {
            OFFSET 0 20 0
          }
        }
      }
      JOINT right_manubrium
      {
        OFFSET -5.722621 16.35077 3.967754
        CHANNELS 3 Zrotation Xrotation Yrotation
        JOINT right_clavicle
        {
          OFFSET -13.16364 1.694482 -4.693211
          CHANNELS 3 Zrotation Xrotation Yrotation
          JOINT right_humerus
          {
            OFFSET -28.5034 -0.3100689 -2.792744
            CHANNELS 3 Zrotation Xrotation Yrotation
            JOINT right_radius
            {
              OFFSET -25.15693 0.02248979 -1.271978
              CHANNELS 3 Zrotation Xrotation Yrotation
              End Site
              {
                OFFSET -15 0 0
              }
            }
          }
        }
      }
      JOINT left_manubrium
      {
        OFFSET 5.722621 16.35077 3.967754
        CHANNELS 3 Zrotation Xrotation Yrotation
        JOINT left_clavicle
        {
          OFFSET 13.16364 1.694482 -4.693211
          CHANNELS 3 Zrotation Xrotation Yrotation
          JOINT left_humerus
          {
            OFFSET 29.39168 -1.063119 -2.237045
            CHANNELS 3 Zrotation Xrotation Yrotation
            JOINT left_radius
            {
              OFFSET 24.59957 -0.9528479 0.9047498
              CHANNELS 3 Zrotation Xrotation Yrotation
              End Site
              {
                OFFSET 15 -0 -0
              }
            }
          }
        }
      }
    }
  }
}
MOTION
Frames: 19
Frame Time: 0.0416666666667
0 103.5113 0 0.7546019 0.01069781 -0.06481523 3.932638 -18.0454 9.122837 -0 35.36586 -0 -5.002753 -15.8271 -3.734154 -6.941811 12.00511 -23.30063 -0 5.584921 -0 4.628684 -19.72456 25.64537 -3.016482 -6.109821 4.911338 2.56856 8.623086 -9.312424 0.6880186 21.22909 7.371007 2.477656 -24.97286 9.634431 5.609865 -21.09767 11.75334 83.16739 31.7637 -16.59835 -0 0 20.79346 -11.58105 9.335428 5.010247 10.3827 -22.42814 4.909079 -94.1597 18.71502 22.07524 0 0 -6.992657 13.59327 20.54979 -5.533615
0.1869847 103.5168 1.568932 -0.2746181 0.4255159 -0.2080623 5.582359 -21.40781 9.463805 -0 36.46591 -0 -6.214754 -14.5864 -4.145246 -5.821089 11.92248 -23.15431 -0 5.948246 -0 2.907595 -21.32254 24.24891 -3.067431 -5.822313 5.102428 2.471881 8.699501 -9.02991 0.726879 21.31884 7.274135 2.535815 -24.90655 9.543032 5.59105 -20.94157 11.65489 83.0154 32.42322 -16.40972 -0 0 20.33234 -11.53267 9.301944 5.12348 10.05059 -22.31457 4.459972 -94.05179 19.26722 22.10116 0 0 -7.82389 13.46006 20.07537 -4.99316
0.4521842 102.8955 4.221169 -0.1845416 0.8640561 -0.2771715 4.397333 -26.45231 5.592221 -0 24.99577 -0 -6.108601 -8.993627 -2.851561 -6.247331 12.61686 -18.81169 -0 6.574068 -0 4.331107 -21.77991 21.67296 -2.742931 -2.626226 6.0212 2.231573 9.956906 -7.396296 0.7861454 21.32174 6.846014 3.318992 -24.86131 8.48066 5.335773 -19.40979 11.64178 84.13014 35.79054 -16.9367 -0 0 15.85946 -12.28518 10.03719 6.760996 6.697894 -20.97534 0.2614442 -92.98638 22.24397 21.89659 0 0 -13.33306 11.23395 14.03247 -0.3422763
0.7282401 102.1411 7.283556 -0.3836205 1.885814 -0.2432011 5.011154 -29.70948 5.375719 -0 20.87169 -0 -5.696397 -7.155511 -2.520234 -6.251864 12.83157 -17.71099 -0 7.250181 -0 4.86873 -22.37564 21.05596 -2.136254 -2.710262 5.342237 2.722755 9.958887 -7.815429 1.403112 20.96818 6.456761 3.027016 -26.28843 9.476928 5.4547 -19.19186 11.12211 86.63207 35.46113 -20.24858 -0 0 14.74115 -8.118932 9.207253 4.134662 6.59371 -20.82621 -0.4059555 -93.91388 23.52939 22.11045 0 0 -14.23496 12.61816 14.73357 -0.7491311
0.9845128 101.207 10.98557 -0.5254093 2.529249 -0.01212909 5.370279 -32.69692 4.498907 -0 16.17109 -0 -5.380633 -4.378771 -2.062428 -6.217061 13.61357 -16.12698 -0 8.5004 -0 4.854618 -22.82669 19.81773 -1.318463 -2.065219 4.832602 3.102963 9.875732 -7.934295 1.488974 20.47451 6.698423 3.167711 -27.30389 9.859141 5.425793 -18.69408 11.08172 87.98033 35.71557 -21.61988 -0 0 13.4102 -6.270908 9.103352 3.684268 5.966996 -20.38695 -1.035518 -93.66936 23.68266 21.94044 0 0 -15.76552 13.03123 13.48644 -0.423225
1.202422 100.1782 15.37833 -0.6492505 2.789003 0.449618 5.576501 -34.65859 3.514712 -0 12.47233 -0 -5.218008 -1.734352 -1.776171 -6.087013 14.73688 -14.61281 -0 10.27172 -0 4.086497 -22.97949 18.22465 -0.7161685 -1.679246 4.496579 3.35776 9.76677 -7.98284 1.529077 20.15906 6.834059 3.219369 -27.87038 10.02426 5.416535 -18.32048 11.06723 88.5831 35.96759 -22.22161 -0 0 12.47916 -5.103773 9.071268 3.571079 5.558959 -20.14405 -1.399288 -93.30102 23.68773 21.77669 0 0 -17.05706 13.11978 12.7213 0.15286
1.356557 99.16061 20.59884 -0.7292512 2.635817 1.145115 5.556199 -35.41659 2.368476 -0 9.436093 -0 -5.055646 0.8311411 -1.84653 -5.838278 16.29052 -12.89518 -0 13.16155 -0 2.239322 -22.5794 15.94028 -0.4468924 -1.238479 4.271798 3.499376 9.777452 -8.062216 1.320255 19.89529 7.263012 3.483974 -27.83916 9.887979 5.424215 -17.87112 11.32759 88.70538 36.26845 -22.26519 -0 0 11.54012 -5.537998 9.547015 4.264446 5.430186 -20.24053 -1.585567 -92.19663 23.02776 20.71438 0 0 -18.70396 12.91875 11.50431 0.4296005
1.436353 98.37121 26.66695 -0.8148863 2.210306 1.966762 5.61566 -34.39928 1.755344 -0 8.00663 -0 -4.745438 2.560916 -2.453577 -5.429185 17.75302 -11.26197 -0 17.7888 -0 -0.5215035 -21.0341 13.32714 -0.4538529 -0.9581422 4.10496 3.557816 9.839821 -8.1702 1.106957 19.72757 7.638944 3.723916 -27.51663 9.687175 5.426502 -17.50843 11.59103 88.73253 36.4036 -22.26521 -0 0 10.79644 -6.504441 10.06618 5.036091 5.53882 -20.54349 -1.720064 -91.01468 22.35148 19.38942 0 0 -20.33629 12.58986 10.5081 0.6181989
1.46546 98.13112 33.40758 -1.129981 1.8496 2.644708 6.258505 -31.29298 2.445895 -0 9.189192 -0 -4.414026 2.706337 -3.378553 -4.720075 17.88998 -10.07947 -0 25.11466 -0 -3.568662 -17.51166 10.95277 -0.7497544 -0.762368 3.973646 3.507125 9.964294 -8.312186 0.8544238 19.63795 8.018271 4.003003 -26.84761 9.375416 5.406193 -17.18994 11.88672 88.75342 36.28912 -22.26908 -0 0 10.21466 -8.309273 10.70004 6.040144 5.88559 -21.07626 -1.855415 -89.66307 21.62757 17.63263 0 0 -22.03975 11.9728 9.546911 0.8101715
1.543768 98.66467 40.33929 -1.956297 2.054862 2.833822 7.653996 -26.72801 4.350897 -0 12.65252 -0 -4.666132 1.038757 -3.599907 -3.672933 14.75307 -9.621573 -0 35.2581 -0 -5.751932 -11.90004 9.335072 -1.126113 -0.6476163 3.908614 3.351385 10.11628 -8.423291 0.6516102 19.62968 8.260796 4.238094 -26.07041 9.015621 5.350228 -16.96753 12.11125 88.84868 35.90172 -22.31863 -0 0 9.909306 -10.39025 11.25384 7.014266 6.249356 -21.6045 -2.019644 -88.59483 21.13477 16.10213 0 0 -23.2103 11.10125 8.815301 1.232368
1.77396 99.78586 46.99858 -2.786925 2.421004 2.484713 8.918201 -22.12856 5.911793 -0 14.97147 -0 -5.302871 -1.136482 -2.730575 -2.798204 8.703391 -9.26343 -0 46.52865 -0 -6.558522 -6.25782 8.546544 -1.375448 -0.5688246 3.964383 3.131119 10.28773 -8.441259 0.532253 19.67848 8.327247 4.392686 -25.40164 8.65845 5.300425 -16.86189 12.24337 88.90565 35.42641 -22.27021 -0 0 9.923141 -12.16878 11.65039 7.772219 6.408842 -21.89521 -2.175334 -88.11616 20.95343 15.38314 0 0 -23.38775 10.15948 8.376427 1.897411
2.030332 101.1348 53.40098 -2.320393 0.6130543 1.732218 8.767363 -17.20873 6.577187 -0 14.54938 -0 -4.29197 -2.425919 -3.154269 -2.656223 4.110699 -8.053434 -0 56.72867 -0 -6.693705 -3.389142 9.721204 -1.485156 -0.5098736 4.138462 2.904315 10.4614 -8.361622 0.4770483 19.7639 8.26735 4.469757 -24.91007 8.341775 5.291907 -16.86651 12.31416 88.79093 35.05936 -22.00922 -0 0 10.19433 -13.41784 11.90194 8.284757 6.35403 -21.92174 -2.274882 -88.16257 20.98474 15.47267 0 0 -22.74223 9.346335 8.194409 2.605761
2.139823 102.6711 59.52965 -1.029222 -3.054772 0.84175 7.610299 -10.95151 6.886543 -0 14.132 -0 -2.68144 -3.753682 -4.784567 -2.850754 0.5389346 -6.827009 -0 63.50057 -0 -6.690277 -3.184302 12.65576 -1.637106 -0.4776426 4.359185 2.662569 10.60225 -8.223569 0.42434 19.89619 8.222107 4.530421 -24.51273 8.102086 5.257849 -16.9796 12.37294 88.58079 34.8075 -21.55359 -0 0 10.62567 -14.5083 12.01522 8.725755 6.267876 -21.85058 -2.303931 -88.38696 21.06615 15.83891 0 0 -21.84279 8.711648 8.114229 3.092898
2.136875 104.2672 65.2406 -0.1069506 -5.126434 0.0608869 6.375527 -5.112812 6.070096 -0 13.49922 -0 -3.335192 -5.792097 -4.650746 -2.758241 -5.134629 -6.528868 -0 64.31083 -0 -6.274251 -4.022407 14.37627 -1.932232 -0.4774801 4.664835 2.320541 10.73394 -7.99371 0.3408838 20.11929 8.216783 4.596547 -24.0663 7.882808 5.120196 -17.24092 12.44433 88.28202 34.58657 -20.77617 -0 0 11.27639 -15.92441 11.9972 9.319111 6.170311 -21.71138 -2.282277 -88.71195 21.16166 16.43691 0 0 -20.64487 8.055293 8.034523 3.475905
2.095102 105.4524 70.69157 0.3757919 -5.564323 -0.6246248 5.424834 -0.4045356 4.458075 -0 11.91336 -0 -5.127311 -7.869992 -3.274468 -2.180961 -11.45674 -6.27561 -0 59.68517 -0 -5.277498 -4.813788 15.16923 -2.347317 -0.5264275 5.172907 1.809979 10.8968 -7.573849 0.2474358 20.46992 8.118471 4.583598 -23.40848 7.56483 4.837503 -17.71375 12.51085 87.65957 34.34493 -19.32148 -0 0 12.27938 -17.89692 11.86334 10.2765 5.912903 -21.39063 -2.264113 -89.19307 21.29216 17.60444 0 0 -18.90518 7.071841 7.897776 4.243831
2.037609 105.977 75.99569 0.4742801 -5.885081 -1.255066 5.084169 3.887415 3.083822 -0 10.16765 -0 -6.714653 -9.569287 -2.2571 -1.076305 -16.37752 -5.558721 -0 52.13162 -0 -3.82748 -4.978667 16.39034 -2.805327 -0.655537 5.828485 1.219038 10.98322 -6.967244 0.1728108 20.8873 7.905763 4.421143 -22.68636 7.231091 4.398877 -18.43742 12.52594 86.59625 34.17618 -17.06854 -0 0 13.63935 -19.99203 11.54903 11.52313 5.477389 -20.82447 -2.212316 -89.79426 21.40987 19.40564 0 0 -16.90485 5.952294 7.729865 5.345041
2.001982 105.9133 81.17749 0.2480573 -6.139822 -1.851661 5.273406 7.535128 2.252898 -0 8.701402 -0 -7.854177 -10.98877 -1.707074 0.4410887 -19.84178 -4.511636 -0 43.47022 -0 -2.215621 -4.512872 17.39209 -3.231818 -0.8681931 6.436445 0.6633599 10.8741 -6.302646 0.1034904 21.26059 7.696544 4.144695 -22.18477 7.02644 3.758312 -19.38585 12.47156 85.42362 34.06215 -14.39118 -0 0 15.19672 -21.84083 11.03697 12.88932 4.966362 -20.08492 -2.088042 -90.43644 21.44046 21.62747 0 0 -15.02299 4.981116 7.570364 6.412124
2.045102 105.4007 86.30777 -0.1873712 -5.973961 -2.424728 5.698368 10.35362 1.970414 -0 7.659498 -0 -8.284397 -12.40414 -1.278046 2.220217 -22.53721 -3.197858 -0 34.42238 -0 -0.6983029 -3.659644 17.66808 -3.536973 -1.14795 6.855161 0.2048586 10.61442 -5.720488 0.03352609 21.50426 7.517102 3.78067 -22.04341 6.974151 2.872908 -20.52052 12.36047 84.65692 33.83554 -11.88106 -0 0 16.75524 -23.32042 10.45099 14.23814 4.406142 -19.29637 -1.974428 -91.09192 21.34508 24.14042 0 0 -13.42653 4.191013 7.471864 7.33304
2.214198 104.5854 91.51773 -0.7471122 -5.358187 -2.990386 6.126888 12.44937 2.117456 -0 7.320915 -0 -7.92621 -13.92587 -0.8468222 4.004317 -24.64314 -1.762609 -0 25.57518 -0 0.5465785 -2.706701 17.33348 -3.604513 -1.472172 7.025155 -0.1290478 10.44256 -5.355995 -0.002897382 21.57482 7.261392 3.304798 -22.22731 7.007576 1.697616 -21.82289 12.23552 84.90229 33.22624 -10.2867 -0 0 18.07723 -24.32786 10.02025 15.33752 3.773549 -18.68739 -2.079925 -91.67775 21.03778 26.76301 0 0 -12.37004 3.587067 7.580588 8.049492
